#!OML:ASF X:\für Bonn\!DataBase\2005_08_11_Bastian_Final\c3d\Bastian.ASF
:FULLY-SPECIFIED
:DEGREES
65
root -3.11417 17.092 2.51965 138.034 -18.6364 -166.464
lowerback 48.1819 -7.14116 3.10346
upperback 12.6329 -13.6832 3.48403
thorax -5.22517 -9.4936 7.86114
lowerneck -10.4946 -5.1552 -6.18167
upperneck -8.017 -5.03863 11.7006
head -0.16669 -1.95319 4.38202
rclavicle -1.1773e-013 8.74653e-014
rhumerus -76.4152 38.1064 -131.529
rradius 38.1051
rwrist -41.8102
rhand -36.2857 -0.780031
rfingers 7.12502
rthumb -9.38548 -30.5511
lclavicle -1.1773e-013 8.74653e-014
lhumerus 38.4476 -26.3936 78.5888
lradius 103.461
lwrist -16.5953
lhand -57.4087 -12.5625
lfingers 7.12502
lthumb -29.6816 15.082
rfemur -100.185 -13.2778 36.461
rtibia 134.642
rfoot -0.789879 2.71817
rtoes -0.562082
lfemur 29.66 -3.40262 -10.3346
ltibia 27.0446
lfoot -9.31394 -16.2689
ltoes -3.8657
66
root -3.11311 17.0926 2.53004 138.201 -18.6144 -166.477
lowerback 47.0973 -6.955 2.85721
upperback 13.6574 -13.6192 3.31292
thorax -5.13513 -9.44572 7.92124
lowerneck -10.5232 -5.20087 -6.20191
upperneck -8.12427 -5.06847 11.8242
head -0.185248 -1.96059 4.42288
rclavicle -2.88238e-014 9.14409e-015
rhumerus -76.6205 38.573 -131.998
rradius 38.2394
rwrist -42.3432
rhand -36.5319 -0.647997
rfingers 7.12502
rthumb -9.62303 -30.4082
lclavicle -2.88238e-014 9.14409e-015
lhumerus 38.3878 -26.4926 78.5319
lradius 103.158
lwrist -16.4487
lhand -57.4746 -12.3421
lfingers 7.12502
lthumb -29.7446 15.2911
rfemur -99.655 -13.4131 36.6614
rtibia 134.459
rfoot -0.918922 2.84209
rtoes -1.16754
lfemur 29.3817 -3.2838 -10.2613
ltibia 27.1796
lfoot -9.32613 -16.3642
ltoes -3.82631
67
root -3.11393 17.0849 2.53872 138.405 -18.5772 -166.492
lowerback 46.8802 -6.88488 2.79196
upperback 13.6921 -13.5473 3.28608
thorax -5.05265 -9.4027 7.8643
lowerneck -10.5645 -5.24923 -6.2411
upperneck -8.20932 -5.1006 11.9792
head -0.193155 -1.9679 4.47584
rclavicle 1.27222e-014 4.21423e-014
rhumerus -76.745 39.0134 -132.324
rradius 38.4199
rwrist -42.8238
rhand -36.7484 -0.641177
rfingers 7.12502
rthumb -9.83188 -30.3916
lclavicle 1.27222e-014 4.21423e-014
lhumerus 38.2867 -26.5857 78.4879
lradius 102.833
lwrist -16.2541
lhand -57.5448 -12.1718
lfingers 7.12502
lthumb -29.8116 15.4494
rfemur -98.9926 -13.5768 36.8249
rtibia 134.284
rfoot -1.08353 2.94994
rtoes -2.34875
lfemur 29.047 -3.16294 -10.1995
ltibia 27.3943
lfoot -9.40533 -16.4249
ltoes -3.97274
68
root -3.11445 17.0821 2.5485 138.645 -18.5128 -166.53
lowerback 46.622 -6.79943 2.70357
upperback 13.7157 -13.4583 3.26829
thorax -4.97003 -9.34865 7.81852
lowerneck -10.5609 -5.29458 -6.31739
upperneck -8.3227 -5.12538 12.133
head -0.215935 -1.97297 4.53605
rclavicle 2.15681e-014 -6.30147e-014
rhumerus -76.8845 39.4894 -132.623
rradius 38.6229
rwrist -43.3829
rhand -36.9423 -0.621184
rfingers 7.12502
rthumb -10.019 -30.3627
lclavicle 2.15681e-014 -6.30147e-014
lhumerus 38.1441 -26.6649 78.4575
lradius 102.48
lwrist -16.0414
lhand -57.6045 -11.996
lfingers 7.12502
lthumb -29.8685 15.615
rfemur -98.2663 -13.7526 36.999
rtibia 134.117
rfoot -1.17652 3.01676
rtoes -3.96275
lfemur 28.6604 -3.01915 -10.152
ltibia 27.6631
lfoot -9.55016 -16.4676
ltoes -4.16319
